<svg id="Capa_1" enable-background="new 0 0 512.001 512.001" height="512" viewBox="0 0 512.001 512.001" width="512" xmlns="http://www.w3.org/2000/svg" xmlns:xlink="http://www.w3.org/1999/xlink"><linearGradient id="SVGID_1_" gradientTransform="matrix(1 0 0 -1 -561.6 -2330.989)" gradientUnits="userSpaceOnUse" x1="687.27" x2="896.27" y1="-2751.164" y2="-2481.164"><stop offset=".0112" stop-color="#dcfced"/><stop offset=".7774" stop-color="#ccddf9"/><stop offset="1" stop-color="#c6d3fc"/></linearGradient><linearGradient id="SVGID_2_" gradientUnits="userSpaceOnUse" x1="249.762" x2="249.762" y1="138" y2="373"><stop offset=".0028" stop-color="#fc80b7" stop-opacity="0"/><stop offset="1" stop-color="#fc80b7" stop-opacity=".6"/></linearGradient><g><path d="m38.146 134.71c19.974-57.707 57.562-157.818 137.712-129.893 31.204 10.872 41.003 52.164 72.37 57.311 29.626 4.861 54.704-24.255 82.89-29.776 35.014-6.859 72.067 2.317 85.37 36.48 15.916 40.874-30.997 86.737-19.655 124.062 18.708 61.564 87.863-40.471 100.229 58.88 17.304 139.025-136.801 386.519-240.619 182.998-52.643-103.199-107.815-30.825-189.876-82.161-77.922-48.747-53.805-144.567-28.421-217.901z" fill="url(#SVGID_1_)"/><path d="m404.762 158.87v209.126c0 2.763-2.243 5.005-5.008 5.005h-304.992v-214.131c0-11.531 9.344-20.87 20.872-20.87h268.257c11.527 0 20.871 9.339 20.871 20.87z" fill="#fca8ce"/><path d="m370.631 142.81c-1.39 21.82-18.83 39.65-40.62 41.5-10.57.9-20.45-1.9-28.5-7.23l-14.22 6.26c-2.94 1.29-5.94-1.7-4.64-4.64l6.26-14.22c-4.82-7.28-7.57-16.05-7.39-25.48h89.19c.03 1.25 0 2.53-.08 3.81z" fill="#fc80b7"/><path d="m267.762 297v7c0 1.657-1.343 3-3 3h-5c-1.657 0-3-1.343-3-3v-7c0-1.657 1.343-3 3-3h5c1.657 0 3 1.343 3 3z" fill="#fdc4de"/><path d="m288.762 288v16c0 1.657-1.343 3-3 3h-5c-1.657 0-3-1.343-3-3v-16c0-1.657 1.343-3 3-3h5c1.657 0 3 1.343 3 3z" fill="#fddaec"/><path d="m246.762 297v7c0 1.657-1.343 3-3 3h-5c-1.657 0-3-1.343-3-3v-7c0-1.657 1.343-3 3-3h5c1.657 0 3 1.343 3 3z" fill="#fdc4de"/><path d="m225.762 297v7c0 1.657-1.343 3-3 3h-5c-1.657 0-3-1.343-3-3v-7c0-1.657 1.343-3 3-3h5c1.657 0 3 1.343 3 3z" fill="#fdc4de"/><path d="m203.762 297v7c0 1.657-1.343 3-3 3h-5c-1.657 0-3-1.343-3-3v-7c0-1.657 1.343-3 3-3h5c1.657 0 3 1.343 3 3z" fill="#fc80b7"/><path d="m310.762 282v22c0 1.657-1.343 3-3 3h-5c-1.657 0-3-1.343-3-3v-22c0-1.657 1.343-3 3-3h5c1.657 0 3 1.343 3 3z" fill="#fddaec"/><path d="m331.762 288v16c0 1.657-1.343 3-3 3h-5c-1.657 0-3-1.343-3-3v-16c0-1.657 1.343-3 3-3h5c1.657 0 3 1.343 3 3z" fill="#fddaec"/><path d="m352.762 273v31c0 1.657-1.343 3-3 3h-5c-1.657 0-3-1.343-3-3v-31c0-1.657 1.343-3 3-3h5c1.657 0 3 1.343 3 3z" fill="#9afdd2"/><path d="m373.762 258v46c0 1.657-1.343 3-3 3h-5c-1.657 0-3-1.343-3-3v-46c0-1.657 1.343-3 3-3h5c1.657 0 3 1.343 3 3z" fill="#27eaa6"/><path d="m404.762 328v41c0 2.761-2.239 5-5 5h-305v-46z" fill="#6785f9"/><path d="m370.635 127.416c1.726-26.953-20.5-49.18-47.453-47.453-21.825 1.398-39.656 18.833-41.506 40.624-.897 10.57 1.903 20.446 7.238 28.497l-6.264 14.227c-1.294 2.938 1.7 5.932 4.638 4.638l14.227-6.264c8.05 5.335 17.927 8.135 28.497 7.238 21.79-1.851 39.225-19.682 40.623-41.507z" fill="#2bfcb4"/><circle cx="306.209" cy="124.478" fill="#fff" r="5.59"/><circle cx="326.119" cy="124.478" fill="#fff" r="5.59"/><circle cx="346.03" cy="124.478" fill="#fff" r="5.59"/><g fill="#fddaec"><path d="m204.556 181h-15.896c-2.901 0-5.513-2.118-5.764-5.008-.283-3.259 2.278-5.992 5.479-5.992h15.896c2.901 0 5.513 2.118 5.764 5.008.283 3.26-2.279 5.992-5.479 5.992z"/><path d="m285.842 202h-97.658c-2.672 0-5.147-1.773-5.676-4.392-.712-3.524 2.062-6.608 5.582-6.608h97.657c2.671 0 5.146 1.771 5.676 4.389.714 3.524-2.06 6.611-5.581 6.611z"/><path d="m164.694 214h-20.994c.696-1.618 1.062-3.376 1.062-5.189v-6.811h7.721c1.453 0 2.858-.691 3.627-1.925 2.463-3.954-.322-8.075-4.068-8.075h-7.28v-7.771c0-1.742.821-3.425 2.287-4.366 4.946-3.176 10.164.46 9.956 5.203-.076 1.73.957 3.348 2.508 4.117 3.768 1.867 7.498-.827 7.498-4.39 0-12.036-13.256-21.036-25.936-13.162-3.99 2.478-6.313 6.941-6.313 11.638v8.731h-1.85c-1.453 0-2.858.691-3.627 1.925-2.463 3.954.322 8.075 4.068 8.075h1.409v7.275c0 .56-.221 1.105-.636 1.481-3.56 3.221-3.502 9.129 1.244 12.339.875.592 1.914.905 2.971.905h27.293c1.043 0 2.046-.466 2.685-1.29 3.202-4.133.322-8.71-3.625-8.71z"/></g><path d="m166.823 57h-3.061v-3.061c0-2.403-1.609-4.612-3.965-5.085-3.214-.645-6.035 1.797-6.035 4.896v3.25h-3.061c-2.403 0-4.612 1.609-5.085 3.965-.645 3.214 1.797 6.035 4.896 6.035h3.25v3.061c0 2.403 1.609 4.612 3.965 5.085 3.214.645 6.035-1.797 6.035-4.896v-3.25h3.25c3.099 0 5.541-2.821 4.896-6.035-.472-2.356-2.682-3.965-5.085-3.965z" fill="#839afa"/><path d="m123.165 111.183c-3.74 0-7.479-1.423-10.326-4.27-5.694-5.693-5.694-14.958 0-20.651 5.694-5.695 14.958-5.693 20.652 0 5.693 5.694 5.693 14.958 0 20.652-2.847 2.846-6.587 4.269-10.326 4.269zm0-19.197c-1.179 0-2.357.449-3.255 1.346-1.794 1.794-1.794 4.715 0 6.509 1.795 1.795 4.715 1.795 6.509 0 1.794-1.794 1.794-4.715 0-6.51-.897-.896-2.075-1.345-3.254-1.345z" fill="#fc80b7"/><path d="m441.2 293.845c-3.74 0-7.479-1.423-10.326-4.27-5.694-5.694-5.694-14.958 0-20.652s14.958-5.693 20.652 0c5.693 5.693 5.693 14.958 0 20.651-2.847 2.847-6.587 4.271-10.326 4.271zm6.79-7.845h.01zm-6.79-11.352c-1.179 0-2.357.449-3.255 1.346-1.794 1.794-1.794 4.715 0 6.51 1.795 1.794 4.714 1.794 6.509 0 1.794-1.794 1.794-4.715 0-6.509-.896-.898-2.075-1.347-3.254-1.347z" fill="#839afa"/><path d="m211.466 453.783c-8.052 0-14.603-6.551-14.603-14.603s6.551-14.603 14.603-14.603 14.603 6.551 14.603 14.603-6.551 14.603-14.603 14.603zm0-19.205c-2.538 0-4.603 2.065-4.603 4.603s2.064 4.603 4.603 4.603 4.603-2.064 4.603-4.603-2.065-4.603-4.603-4.603z" fill="#27eaa6"/><path d="m341.823 453h-3.061v-3.061c0-2.403-1.609-4.612-3.965-5.085-3.214-.645-6.035 1.797-6.035 4.896v3.25h-3.061c-2.403 0-4.612 1.609-5.085 3.965-.645 3.214 1.797 6.035 4.896 6.035h3.25v3.061c0 2.403 1.609 4.612 3.965 5.085 3.214.645 6.035-1.797 6.035-4.896v-3.25h3.25c3.099 0 5.541-2.821 4.896-6.035-.472-2.356-2.682-3.965-5.085-3.965z" fill="#fc80b7"/><g><path d="m241.559 354h17.152c2.403 0 4.612-1.609 5.085-3.965.645-3.214-1.797-6.035-4.896-6.035h-17.152c-2.403 0-4.612 1.609-5.085 3.965-.645 3.214 1.796 6.035 4.896 6.035z" fill="#315ddb"/></g><path d="m404.762 158.87v209.126c0 2.763-2.243 5.005-5.008 5.005h-304.992v-214.131c0-11.531 9.344-20.87 20.872-20.87h268.257c11.527 0 20.871 9.339 20.871 20.87z" fill="url(#SVGID_2_)"/><path d="m269.027 268h-125.904c-2.403 0-4.612-1.609-5.085-3.965-.645-3.214 1.797-6.035 4.896-6.035h126.103c1.334 0 2.587-.519 3.531-1.462l49.152-49.152c2.828-2.829 6.589-4.387 10.59-4.387h24.902c3.978 0 7.793 1.58 10.605 4.393l25.141 25.142c.938.938 2.211 1.465 3.537 1.465h30.53c2.403 0 4.612 1.609 5.085 3.965.645 3.214-1.797 6.035-4.896 6.035h-30.679c-3.978 0-7.793-1.58-10.605-4.393l-25.142-25.143c-.937-.937-2.209-1.464-3.534-1.464h-24.942c-1.326 0-2.597.527-3.534 1.464l-49.142 49.142c-2.814 2.814-6.63 4.395-10.609 4.395z" fill="#2bfcb4"/><path d="m142.934 308.11c-1.28 0-2.559-.488-3.536-1.464-1.953-1.953-1.953-5.119 0-7.071l62.181-62.181c2.813-2.813 6.629-4.394 10.608-4.394h50.969c1.326 0 2.598-.527 3.535-1.464l13.142-13.142c2.813-2.813 6.628-4.393 10.606-4.393h37.968c1.364 0 2.646-.531 3.61-1.495l16.113-16.113c2.813-2.813 6.627-4.393 10.604-4.393h67.051c1.336 0 2.591-.52 3.536-1.464l29.609-29.609c1.953-1.952 5.118-1.952 7.071 0 1.953 1.953 1.953 5.119 0 7.071l-29.609 29.609c-2.813 2.813-6.628 4.393-10.606 4.393h-66.922c-1.344 0-2.659.545-3.609 1.495l-16.112 16.112c-2.813 2.813-6.628 4.393-10.606 4.393h-38.13c-1.326 0-2.598.527-3.535 1.464l-13.142 13.142c-2.813 2.813-6.629 4.394-10.608 4.394h-50.938c-1.336 0-2.591.52-3.536 1.464l-62.182 62.182c-.973.975-2.252 1.464-3.532 1.464z" fill="#fc80b7"/><g><path d="m437.762 364.719v11.383c0 12.09-9.8 21.898-21.904 21.898h-332.192c-12.104 0-21.904-9.808-21.904-21.898v-11.626c0-6.89 5.586-12.476 12.476-12.476h107.074c1.863 0 3.572 1.036 4.434 2.689l6.579 12.622c.861 1.653 2.571 2.689 4.435 2.689h106.008c1.864 0 3.573-1.037 4.435-2.689l6.579-12.622c.861-1.652 2.57-2.689 4.434-2.689h107.071c6.889 0 12.475 5.695 12.475 12.719z" fill="#b7c5fc"/><path d="m426.282 352c6.893 0 12.48 5.588 12.48 12.48v11.544c0 12.132-9.986 21.976-22.317 21.976h-15c12.33 0 22.317-9.844 22.317-21.976v-11.51c0-6.914-5.696-12.514-12.717-12.514z" fill="#d1defd"/><g fill="#fc80b7"><path d="m143.762 371h-43c-2.761 0-5-2.239-5-5v-13h53v13c0 2.761-2.238 5-5 5z"/><path d="m399.762 371h-43c-2.761 0-5-2.239-5-5v-13h53v13c0 2.761-2.238 5-5 5z"/></g></g></g></svg>