<svg id="Capa_1" enable-background="new 0 0 512.001 512.001" height="512" viewBox="0 0 512.001 512.001" width="512" xmlns="http://www.w3.org/2000/svg" xmlns:xlink="http://www.w3.org/1999/xlink"><linearGradient id="SVGID_1_" gradientTransform="matrix(1 0 0 -1 -561.6 -2330.989)" gradientUnits="userSpaceOnUse" x1="993.934" x2="759.933" y1="-2842.37" y2="-2532.369"><stop offset="0" stop-color="#c6d3fc"/><stop offset=".593" stop-color="#e6d8f3"/><stop offset=".997" stop-color="#fddaec"/></linearGradient><linearGradient id="SVGID_2_" gradientUnits="userSpaceOnUse" x1="235.185" x2="235.185" y1="125.576" y2="370.119"><stop offset=".0028" stop-color="#fc80b7" stop-opacity="0"/><stop offset="1" stop-color="#fc80b7" stop-opacity=".6"/></linearGradient><g><path d="m501.873 162.318c-22.357-56.888-91.226-91.003-149.556-68.427-66.582 25.769-44.506 131.673-104.983 153.088-32.669 11.568-80.963-31.644-113.969-38.27-60.821-12.21-115.881 30.705-129.439 90.134-13.832 60.63 8.353 141.61 74.967 158.066 79.35 19.602 120.683-51.729 187.249-72.211 68.31-21.019 144.263 28.622 200.814-31.776 41.78-44.622 57.055-134.273 34.917-190.604z" fill="url(#SVGID_1_)"/><path d="m424.062 345.967h-3.062v-3.062c0-2.404-1.61-4.613-3.968-5.085-3.214-.642-6.032 1.799-6.032 4.897v3.25h-3.062c-2.403 0-4.612 1.609-5.084 3.965-.644 3.214 1.796 6.035 4.896 6.035h3.25v3.062c0 2.404 1.611 4.613 3.968 5.085 3.214.642 6.032-1.799 6.032-4.897v-3.25h3.25c3.1 0 5.54-2.821 4.896-6.035-.472-2.356-2.681-3.965-5.084-3.965z" fill="#fc80b7"/><path d="m310.062 59.967h-3.062v-3.062c0-2.404-1.61-4.613-3.968-5.085-3.214-.642-6.032 1.799-6.032 4.897v3.25h-3.062c-2.403 0-4.612 1.609-5.084 3.965-.644 3.214 1.796 6.035 4.896 6.035h3.25v3.062c0 2.404 1.611 4.614 3.968 5.085 3.214.642 6.032-1.799 6.032-4.897v-3.25h3.25c3.1 0 5.54-2.821 4.896-6.035-.472-2.356-2.681-3.965-5.084-3.965z" fill="#839afa"/><path d="m123.062 166.967h-3.062v-3.062c0-2.404-1.61-4.614-3.968-5.085-3.214-.642-6.032 1.798-6.032 4.897v3.25h-3.062c-2.403 0-4.612 1.609-5.084 3.965-.644 3.214 1.796 6.035 4.896 6.035h3.25v3.062c0 2.404 1.611 4.614 3.968 5.085 3.214.642 6.032-1.798 6.032-4.897v-3.25h3.25c3.1 0 5.54-2.821 4.896-6.035-.472-2.356-2.681-3.965-5.084-3.965z" fill="#27eaa6"/><path d="m338.22 434.238c-3.748 0-7.497-1.43-10.346-4.291-5.428-5.451-5.636-14.451-.453-20.135 5.641-6.185 15.27-6.35 21.124-.496 5.693 5.693 5.693 14.958.001 20.651h-.001c-2.847 2.848-6.586 4.271-10.325 4.271zm6.79-8.271h.01zm-6.79-10.929c-1.179 0-2.357.449-3.255 1.346-1.794 1.794-1.794 4.715.001 6.51 1.793 1.794 4.714 1.794 6.509 0 1.794-1.794 1.794-4.715 0-6.509-.898-.898-2.077-1.346-3.255-1.347z" fill="#27eaa6"/><path d="m110.271 415.335c-2.801 0-5.545-.81-7.946-2.376-6.744-4.398-8.653-13.463-4.256-20.208 4.398-6.744 13.462-8.655 20.209-4.255 3.267 2.13 5.509 5.406 6.313 9.223s.073 7.718-2.058 10.985-5.406 5.509-9.223 6.313c-1.011.213-2.028.318-3.039.318zm.038-19.209c-1.505 0-2.981.735-3.863 2.087-1.386 2.125-.783 4.983 1.343 6.37 1.029.672 2.257.9 3.462.648 1.203-.253 2.235-.96 2.906-1.99h.001c.671-1.03.901-2.259.648-3.462-.254-1.203-.96-2.235-1.99-2.907-.774-.505-1.644-.746-2.507-.746z" fill="#839afa"/><circle cx="116.302" cy="309.858" fill="#2bfcb4" r="46.743"/><path d="m300.53 401.906-39.13 16.2-23.1-55.77-12.38-29.88 50.19-20.78 15.01 36.24 15.88 38.35c2.53 6.11-.37 13.11-6.47 15.64z" fill="#fca8ce"/><path d="m291.12 347.916-52.82 14.42-12.38-29.88 50.19-20.78z" fill="#fc80b7"/><path d="m267.91 450.696-18.4 7.62c-12.15 5.03-26.07-.74-31.11-12.89l-28.9-69.77-7.17-17.32 72.66-30.1 5.8 27.96 16.1 77.53c1.46 7.08-2.3 14.2-8.98 16.97z" fill="#2bfcb4"/><path d="m260.79 356.196-71.29 19.46-7.17-17.32 72.66-30.1z" fill="#27eaa6"/><path d="m373.891 312.886-205.97 56.22c-13.91 3.79-28.46-3.34-33.97-16.66l-35.29-85.19c-5.51-13.32-.27-28.65 12.25-35.8l185.4-105.88z" fill="#839afa"/><path d="m253.57 211.746c1.29 2.94-1.7 5.93-4.64 4.64l-14.23-6.27c-8.05 5.34-17.92 8.14-28.49 7.24-14.31-1.22-26.75-9.32-33.99-20.93l77.4-44.19c2.69 5.1 4.41 10.78 4.92 16.78.9 10.57-1.9 20.45-7.23 28.5z" fill="#6785f9"/><path d="m282.732 286.408-52.761 14.399c-3.477.949-5.332 4.733-3.953 8.063l5.917 14.286c1.153 2.784 4.197 4.276 7.104 3.483l52.761-14.399c3.477-.949 5.332-4.733 3.953-8.063l-5.917-14.286c-1.153-2.784-4.196-4.276-7.104-3.483z" fill="#fddaec"/><path d="m235.17 275.834-13.965 3.811c-3.477.949-5.332 4.733-3.953 8.063l.421 1.017c1.153 2.784 4.197 4.276 7.104 3.483l13.965-3.811c3.477-.949 5.332-4.733 3.953-8.063l-.421-1.017c-1.153-2.785-4.196-4.277-7.104-3.483z" fill="#b7c5fc"/><path d="m157.282 204.961 62.166 150.082-51.525 14.062c-13.91 3.792-28.459-3.343-33.974-16.656l-35.29-85.197c-5.514-13.313-.272-28.647 12.246-35.8z" fill="#d1defd"/><path d="m312.38 155.936c34.27-14.195 73.56 2.079 87.755 36.349s-2.079 73.56-36.349 87.755z" fill="#fddaec"/><path d="m383.376 332.043c-13.629 5.645-29.254-.827-34.899-14.456l-73.472-177.377c-5.645-13.629.827-29.254 14.456-34.899s29.254.827 34.899 14.456l73.472 177.377c5.644 13.629-.828 29.254-14.456 34.899z" fill="#fc80b7"/><path d="m324.358 119.77 73.47 177.372c5.647 13.634-.824 29.256-14.457 34.903-2.975 1.232-6.047 1.883-9.093 2.005 8.025-7.366 11.01-19.238 6.599-29.886l-73.47-177.372c-2.826-6.822-8.146-11.847-14.459-14.453-3.55-1.47-7.421-2.185-11.34-2.013 2.24-2.068 4.873-3.78 7.847-5.012 6.822-2.826 14.137-2.617 20.444.004 6.313 2.605 11.634 7.629 14.459 14.452z" fill="#fca8ce"/><path d="m146.176 311.066-34.554 14.313c-6.259 2.593-13.436-.38-16.028-6.639-2.593-6.259.38-13.436 6.639-16.028l34.554-14.313z" fill="#fc80b7"/><path d="m165.584 160.821c-1.726-26.953 20.5-49.18 47.453-47.453 21.825 1.398 39.656 18.833 41.506 40.624.897 10.57-1.903 20.446-7.238 28.497l6.264 14.227c1.294 2.938-1.7 5.932-4.638 4.638l-14.227-6.264c-8.05 5.335-17.927 8.135-28.497 7.238-21.79-1.851-39.226-19.682-40.623-41.507z" fill="#2bfcb4"/><g><g fill="#fc80b7"><path d="m426.168 185.082 9.467-3.921c2.552-1.057 3.763-3.981 2.706-6.533s-3.983-3.761-6.532-2.707l-9.467 3.921c-2.552 1.057-3.763 3.981-2.706 6.533.797 1.926 2.659 3.088 4.621 3.088.638.001 1.286-.122 1.911-.381z"/><path d="m419.49 146.562c-2.352-1.448-5.432-.716-6.88 1.636l-6.631 10.768c-1.447 2.351-.716 5.431 1.636 6.879.817.503 1.723.743 2.617.743 1.679 0 3.317-.845 4.263-2.379l6.631-10.768c1.446-2.351.715-5.431-1.636-6.879z"/><path d="m441.147 201.782-12.302-2.925c-2.684-.641-5.382 1.021-6.021 3.708s1.021 5.382 3.708 6.021l12.302 2.925c.389.093.777.137 1.16.137 2.263 0 4.314-1.547 4.86-3.844.641-2.687-1.019-5.383-3.707-6.022z"/></g><path d="m155.374 320.209-18.764-45.299c-1.057-2.551-3.984-3.761-6.532-2.706-2.552 1.057-3.763 3.982-2.706 6.533l18.764 45.299c.797 1.925 2.659 3.088 4.621 3.088.638 0 1.286-.123 1.911-.382 2.553-1.057 3.764-3.982 2.706-6.533z" fill="#6785f9"/><path d="m166.04 315.792c.797 1.925 2.659 3.088 4.621 3.088.638 0 1.286-.123 1.911-.382 2.552-1.057 3.763-3.982 2.706-6.533l-18.763-45.299c-1.056-2.551-3.984-3.761-6.532-2.706-2.552 1.057-3.763 3.982-2.706 6.533z" fill="#6785f9"/></g><g fill="#fff"><circle cx="190.189" cy="157.883" r="5.59"/><circle cx="210.099" cy="157.883" r="5.59"/><circle cx="230.009" cy="157.883" r="5.59"/></g><path d="m373.891 312.886-205.97 56.22c-13.91 3.79-28.46-3.34-33.97-16.66l-35.29-85.19c-5.51-13.32-.27-28.65 12.25-35.8l185.4-105.88z" fill="url(#SVGID_2_)"/></g></svg>