<svg id="Capa_1" enable-background="new 0 0 512 512" height="512" viewBox="0 0 512 512" width="512" xmlns="http://www.w3.org/2000/svg" xmlns:xlink="http://www.w3.org/1999/xlink"><linearGradient id="SVGID_1_" gradientTransform="matrix(1 0 0 -1 -561.6 -8714.99)" gradientUnits="userSpaceOnUse" x1="815.054" x2="821.051" y1="-9233.477" y2="-8725.673"><stop offset=".0112" stop-color="#dcfced"/><stop offset=".3814" stop-color="#e7f0ed"/><stop offset="1" stop-color="#fddaec"/></linearGradient><linearGradient id="SVGID_2_" gradientUnits="userSpaceOnUse" x1="208.574" x2="208.574" y1="55.98" y2="374.306"><stop offset=".0028" stop-color="#fc80b7" stop-opacity="0"/><stop offset="1" stop-color="#fc80b7" stop-opacity=".6"/></linearGradient><g><path d="m367.601 55.647c-68.759-27.81-164.519-18.632-217.922 29.019-37.707 33.645-8.934 43.684 15.8 106.316 17.901 45.33-164.545 37.042-165.473 118.573-1.073 94.257 131.322 77.894 180.254 89.242 74.814 17.35 139.543 79.805 219.771 72.582 69.844-6.288 97.063-60.73 107.479-123.379 19.405-116.717-23.529-245.283-139.909-292.353z" fill="url(#SVGID_1_)"/><path d="m296.437 328.663 25.583-25.583 53.181 53.181-25.583 25.583z" fill="#d1defd"/><path d="m322.09 303.073 19.629 19.629c-3.753 4.658-7.796 9.154-12.115 13.472s-8.814 8.362-13.472 12.115l-19.629-19.629z" fill="#b7c5fc"/><path d="m459.661 432.35-33.881 33.881c-3.904 3.904-10.233 3.904-14.137 0l-74.031-74.031c-3.904-3.904-3.904-10.233 0-14.137l33.881-33.881c3.904-3.904 10.233-3.904 14.137 0l74.031 74.031c3.904 3.905 3.904 10.234 0 14.137z" fill="#fca8ce"/><circle cx="208.573" cy="215.143" fill="#6785f9" r="159.163"/><path d="m347.949 138.193c-6.387 24.491-27.799 43.223-53.729 45.422-14.454 1.229-27.959-2.599-38.965-9.896l-19.462 8.567c-4.008 1.769-8.107-2.329-6.338-6.338l8.567-19.463c-7.297-11.006-11.126-24.51-9.896-38.965 1.949-23.031 16.953-42.494 37.435-51.03 20.252 7.747 39.235 19.782 55.559 36.106 10.825 10.826 19.771 22.832 26.829 35.597z" fill="#466ef8"/><circle cx="208.573" cy="215.143" fill="#9afdd2" r="120.347"/><path d="m321.769 174.199c-8.097 5.208-17.483 8.567-27.549 9.416-14.454 1.229-27.959-2.599-38.965-9.896l-19.462 8.567c-4.008 1.769-8.107-2.329-6.338-6.338l8.567-19.463c-7.297-11.006-11.126-24.51-9.896-38.965.61-7.127 2.459-13.915 5.348-20.132 22.062 4.638 43.063 15.524 60.197 32.657 12.914 12.916 22.28 28.04 28.098 44.154z" fill="#2bfcb4"/><path d="m144.384 265.846h118.069c3.294 0 5.964-2.67 5.964-5.964v-31.072c0-3.294-2.67-5.964-5.964-5.964h-118.072c-3.294 0-5.964 2.67-5.964 5.964v31.127c-.001 3.263 2.671 5.909 5.967 5.909z" fill="#fddaec"/><path d="m188.952 249.846h-51.623c-2.402 0-4.61-1.609-5.082-3.964-.645-3.215 1.795-6.036 4.896-6.036h51.623c2.402 0 4.61 1.609 5.082 3.964.645 3.214-1.795 6.036-4.896 6.036z" fill="#fc80b7"/><path d="m213.657 265.846h-76.334c-2.402 0-4.61-1.609-5.082-3.964-.645-3.215 1.795-6.036 4.896-6.036h76.334c2.402 0 4.61 1.609 5.082 3.964.645 3.214-1.795 6.036-4.896 6.036z" fill="#fc80b7"/><g fill="#fca8ce"><circle cx="203.349" cy="187.019" r="5.588"/><circle cx="220.253" cy="187.019" r="5.588"/><circle cx="203.349" cy="204.177" r="5.588"/><circle cx="220.253" cy="204.177" r="5.588"/></g><path d="m54.669 111.436c-3.899 0-7.566-1.519-10.323-4.276-2.757-2.756-4.275-6.423-4.275-10.322s1.519-7.566 4.276-10.323c5.691-5.691 14.952-5.692 20.646-.001 5.692 5.693 5.691 14.955 0 20.646-2.758 2.757-6.425 4.276-10.324 4.276zm0-19.197c-1.178 0-2.355.448-3.252 1.345-.868.869-1.347 2.024-1.347 3.253s.479 2.383 1.347 3.251c.869.869 2.023 1.348 3.252 1.348s2.384-.479 3.253-1.347c1.793-1.793 1.792-4.711-.001-6.505-.897-.896-2.074-1.345-3.252-1.345z" fill="#839afa"/><path d="m385.108 136.122c-5.972 0-11.401-3.564-13.847-9.682-1.234-3.086-1.273-6.56-.071-9.659 3.023-7.788 10.822-11.51 18.51-9.158.598.183 1.182.419 1.739.702 9.466 4.807 10.797 16.717 3.991 23.522h.001c-.001 0-.001 0-.001 0-2.756 2.757-6.422 4.275-10.322 4.275zm0-19.128c-1.501 0-2.892.715-3.786 1.98-1.084 1.535-1.091 3.663-.021 5.207.891 1.285 2.293 2.012 3.806 2.012 1.229 0 2.383-.479 3.251-1.347h.001c1.793-1.794 1.793-4.711 0-6.505-.867-.869-2.022-1.347-3.251-1.347z" fill="#27eaa6"/><path d="m90.477 56.846h-3.06v-3.06c0-2.404-1.611-4.613-3.968-5.084-3.214-.642-6.032 1.798-6.032 4.897v3.247h-3.06c-2.404 0-4.613 1.611-5.084 3.968-.642 3.214 1.798 6.032 4.897 6.032h3.247v3.059c0 2.404 1.61 4.613 3.968 5.084 3.214.642 6.032-1.797 6.032-4.897v-3.246h3.247c3.099 0 5.539-2.818 4.897-6.032-.471-2.358-2.681-3.968-5.084-3.968z" fill="#fc80b7"/><path d="m400.477 301.846h-3.06v-3.06c0-2.404-1.611-4.613-3.968-5.084-3.214-.642-6.032 1.797-6.032 4.897v3.247h-3.06c-2.404 0-4.613 1.611-5.084 3.968-.642 3.214 1.798 6.032 4.897 6.032h3.247v3.059c0 2.404 1.611 4.613 3.968 5.084 3.214.642 6.032-1.797 6.032-4.897v-3.246h3.247c3.099 0 5.539-2.818 4.897-6.032-.471-2.358-2.681-3.968-5.084-3.968z" fill="#fc80b7"/><path d="m155.477 411.846h-3.06v-3.06c0-2.404-1.611-4.613-3.968-5.084-3.214-.642-6.032 1.797-6.032 4.897v3.247h-3.06c-2.404 0-4.613 1.611-5.084 3.968-.642 3.214 1.797 6.032 4.897 6.032h3.247v3.06c0 2.404 1.611 4.613 3.968 5.084 3.214.642 6.032-1.797 6.032-4.897v-3.247h3.247c3.099 0 5.539-2.818 4.897-6.032-.471-2.358-2.681-3.968-5.084-3.968z" fill="#27eaa6"/><g fill="#fc80b7"><path d="m282.37 236.852c4.654-3.912 7.622-9.768 7.622-16.309 0-11.75-9.56-21.309-21.31-21.309s-21.309 9.559-21.309 21.309c0 6.541 2.968 12.397 7.621 16.309-4.653 3.912-7.621 9.768-7.621 16.309 0 2.762 2.238 5 5 5s5-2.238 5-5c0-6.235 5.073-11.309 11.309-11.309s11.31 5.073 11.31 11.309c0 2.762 2.238 5 5 5s5-2.238 5-5c0-6.541-2.968-12.397-7.622-16.309zm-24.996-16.309c0-6.235 5.073-11.309 11.309-11.309s11.31 5.073 11.31 11.309-5.073 11.31-11.31 11.31c-6.236 0-11.309-5.074-11.309-11.31z"/><path d="m149.941 211.846h-5.127c-6.294 0-11.397-5.103-11.397-11.397v-15.206c0-6.294 5.103-11.397 11.397-11.397h5.205c6.295 0 11.398 5.103 11.398 11.398v15.286c.001 6.239-5.147 11.316-11.476 11.316zm-6.524-26.603v15.206c0 .771.625 1.397 1.397 1.397h5.205c.772 0 1.398-.626 1.398-1.398v-15.205c0-.772-.626-1.397-1.397-1.397h-5.206c-.772 0-1.397.625-1.397 1.397z"/><path d="m171.417 208.782v-24.936h-1.804c-.504 0-.982-.217-1.331-.58-4.138-4.307-1.16-9.42 3.014-9.42h8.357c.974 0 1.763.789 1.763 1.763v31.509c0 4.17-5.102 7.146-9.406 3.028-.372-.357-.593-.848-.593-1.364z"/></g><circle cx="208.573" cy="215.143" fill="url(#SVGID_2_)" r="159.163"/><path d="m349.779 107.865c2.361-36.86-28.035-67.256-64.895-64.895-29.847 1.912-54.232 25.755-56.762 55.556-1.227 14.455 2.603 27.962 9.898 38.971l-8.567 19.456c-1.769 4.018 2.325 8.112 6.343 6.343l19.456-8.567c11.009 7.296 24.516 11.125 38.971 9.898 29.801-2.531 53.644-26.916 55.556-56.762z" fill="#fca8ce"/><circle cx="265.58" cy="103.131" fill="#fff" r="6.854"/><circle cx="289.994" cy="103.131" fill="#fff" r="6.854"/><circle cx="314.409" cy="103.131" fill="#fff" r="6.854"/><circle cx="118.02" cy="328.986" fill="#2bfcb4" r="45.335"/><path d="m118.02 346.996c-1.327 0-2.6-.527-3.537-1.466l-13.19-13.2c-1.951-1.953-1.95-5.119.003-7.071s5.118-1.952 7.071.003l9.654 9.661 46.662-46.672c1.953-1.953 5.118-1.952 7.071-.001 1.953 1.952 1.953 5.118.001 7.071l-50.199 50.21c-.938.938-2.21 1.465-3.536 1.465z" fill="#fff"/></g></svg>