<svg id="Capa_1" enable-background="new 0 0 512.001 512.001" height="512" viewBox="0 0 512.001 512.001" width="512" xmlns="http://www.w3.org/2000/svg" xmlns:xlink="http://www.w3.org/1999/xlink"><linearGradient id="SVGID_1_" gradientTransform="matrix(1 0 0 -1 -561.6 -10842.989)" gradientUnits="userSpaceOnUse" x1="756.92" x2="883.921" y1="-10939.742" y2="-11310.743"><stop offset=".0112" stop-color="#dcfced"/><stop offset=".3814" stop-color="#e7f0ed"/><stop offset="1" stop-color="#fddaec"/></linearGradient><linearGradient id="SVGID_2_" gradientUnits="userSpaceOnUse" x1="269.885" x2="269.885" y1="199.644" y2="444.644"><stop offset=".0028" stop-color="#fc80b7" stop-opacity="0"/><stop offset="1" stop-color="#fc80b7" stop-opacity=".6"/></linearGradient><g><path d="m501.873 159.427c-22.357-56.888-91.226-91.003-149.556-68.427-66.582 25.769-44.506 131.673-104.983 153.088-32.669 11.568-80.963-31.644-113.969-38.27-60.821-12.21-115.881 30.705-129.439 90.134-13.832 60.63 8.353 141.61 74.967 158.066 79.35 19.602 120.683-51.729 187.249-72.211 68.31-21.019 144.263 28.622 200.814-31.776 41.78-44.621 57.055-134.272 34.917-190.604z" fill="url(#SVGID_1_)"/><path d="m371.359 229.161c-12.273-7.104-28.174-3.675-39.727 7.299v-26.816c0-5.523-4.477-10-10-10h-137.191c-4.637 0-8.67 3.175-9.758 7.682l-20.747 85.924c-1.525 6.316 3.26 12.394 9.758 12.394h19.249l-4.493 73.325c-.355 5.787 4.243 10.675 10.04 10.675h46.142v45c0 5.523 4.477 10 10 10h76.999c5.523 0 10-4.477 10-10v-136.929c.063.037.121.078.184.114 15.633 9.049 37.159 1.013 48.078-17.949 10.921-18.961 7.1-41.669-8.534-50.719z" fill="#d1defd"/><path d="m212.632 267.644v20c0 5.523 4.477 10 10 10h56c5.523 0 10-4.477 10-10v-20z" fill="#b7c5fc"/><path d="m250.27 351.426c0 .486-.024.96-.061 1.434-.729 8.728-8.047 15.584-16.946 15.584-3.452 0-6.674-1.033-9.348-2.808-4.619-3.039-7.658-8.266-7.658-14.211 0-9.385 7.61-17.007 17.007-17.007 9.384.002 17.006 7.624 17.006 17.008z" fill="#fc80b7"/><path d="m250.209 352.861c-.729 8.728-8.047 15.584-16.946 15.584-3.452 0-6.674-1.033-9.348-2.808.729-8.728 8.035-15.572 16.946-15.572 3.452 0 6.674 1.021 9.348 2.796z" fill="#fdc4de"/><path d="m248.726 44.377c-38.123.902-69.125 32.149-69.743 70.278-.273 16.809 5.26 32.312 14.724 44.642 16.628 21.667 25.748 48.107 26.612 75.347h60.272c.922-27.568 10.743-53.996 27.264-76.201 8.85-11.895 14.088-26.635 14.088-42.602 0-40.056-32.946-72.417-73.217-71.464z" fill="#fdc4de"/><path d="m321.943 115.844c0 15.97-5.24 30.71-14.09 42.6-16.52 22.21-26.34 48.63-27.26 76.2h-14.76c.92-27.57 10.74-53.99 27.26-76.2 8.85-11.89 14.09-26.63 14.09-42.6 0-36.99-28.08-67.42-64.1-71.1 1.86-.2 3.74-.32 5.64-.36 40.27-.96 73.22 31.4 73.22 71.46z" fill="#fddaec"/><path d="m278.632 283.644h-56c-5.523 0-10-4.477-10-10v-33c0-5.523 4.477-10 10-10h56c5.523 0 10 4.477 10 10v33c0 5.523-4.477 10-10 10z" fill="#dcfced"/><path d="m394.306 352.034c-5.557 0-11.113-3.142-13.742-9.433-1.311-3.137-1.416-6.693-.194-9.866 3.01-7.811 10.812-11.554 18.515-9.207.6.183 1.186.419 1.745.703 9.477 4.807 10.811 16.723 4.002 23.532v.001c-2.847 2.846-6.586 4.27-10.326 4.27zm6.715-7.39h.01zm-6.791-11.81c-1.229 0-2.385.479-3.254 1.349-1.795 1.795-1.795 4.715 0 6.51 1.794 1.793 4.714 1.794 6.51-.001 1.794-1.794 1.794-4.714 0-6.509-.87-.869-2.026-1.349-3.256-1.349z" fill="#839afa"/><path d="m424.307 247.554c-3.745 0-7.49-1.427-10.339-4.284-5.431-5.446-5.648-14.445-.47-20.132 5.64-6.195 15.277-6.363 21.134-.507 5.694 5.694 5.694 14.959 0 20.652v.001c-2.846 2.846-6.586 4.27-10.325 4.27zm7.175-7.91h.01zm-6.79-11.287c-1.179 0-2.357.449-3.254 1.346-1.795 1.795-1.795 4.716 0 6.511 1.794 1.793 4.714 1.794 6.51-.001 1.794-1.794 1.794-4.715 0-6.51-.899-.897-2.077-1.346-3.256-1.346z" fill="#839afa"/><path d="m125.694 271.644h-3.062v-3.062c0-2.403-1.609-4.612-3.965-5.084-3.214-.644-6.035 1.796-6.035 4.896v3.25h-3.062c-2.404 0-4.614 1.61-5.085 3.968-.643 3.214 1.798 6.032 4.897 6.032h3.25v3.062c0 2.403 1.609 4.612 3.965 5.084 3.214.644 6.035-1.796 6.035-4.896v-3.25h3.25c3.098 0 5.539-2.818 4.897-6.032-.472-2.358-2.681-3.968-5.085-3.968z" fill="#fc80b7"/><path d="m461.882 250.644h-3.25v-3.062c0-2.403-1.609-4.612-3.965-5.084-3.214-.644-6.035 1.796-6.035 4.896v3.25h-3.062c-2.404 0-4.613 1.61-5.085 3.968-.642 3.214 1.798 6.032 4.897 6.032h3.25v3.062c0 2.403 1.609 4.612 3.965 5.084 3.214.644 6.035-1.796 6.035-4.896v-3.25h3.062c2.404 0 4.613-1.61 5.085-3.968.642-3.214-1.799-6.032-4.897-6.032z" fill="#fc80b7"/><path d="m123.694 161.644h-3.062v-3.062c0-2.403-1.609-4.612-3.965-5.084-3.214-.644-6.035 1.796-6.035 4.896v3.25h-3.062c-2.404 0-4.614 1.61-5.085 3.968-.643 3.214 1.798 6.032 4.897 6.032h3.25v3.062c0 2.403 1.609 4.612 3.965 5.084 3.214.644 6.035-1.796 6.035-4.896v-3.25h3.25c3.098 0 5.539-2.818 4.897-6.032-.472-2.358-2.681-3.968-5.085-3.968z" fill="#27eaa6"/><g fill="#839afa"><path d="m365.38 205.644h-15.294c-2.404 0-4.613-1.611-5.085-3.968-.642-3.214 1.798-6.032 4.897-6.032h15.294c2.404 0 4.613 1.61 5.085 3.968.643 3.214-1.798 6.032-4.897 6.032z"/><path d="m399.38 205.644h-15.294c-2.404 0-4.613-1.611-5.085-3.968-.642-3.214 1.798-6.032 4.897-6.032h15.294c2.404 0 4.614 1.61 5.085 3.968.643 3.214-1.798 6.032-4.897 6.032z"/><path d="m125.828 205.644h-15.293c-2.404 0-4.614-1.611-5.085-3.968-.642-3.214 1.798-6.032 4.897-6.032h15.293c2.404 0 4.614 1.61 5.085 3.968.643 3.214-1.798 6.032-4.897 6.032z"/><path d="m159.828 205.644h-15.293c-2.404 0-4.614-1.611-5.085-3.968-.642-3.214 1.798-6.032 4.897-6.032h15.293c2.404 0 4.613 1.61 5.085 3.968.643 3.214-1.798 6.032-4.897 6.032z"/><path d="m182.828 449.644h-15.293c-2.404 0-4.614-1.611-5.085-3.968-.642-3.214 1.798-6.032 4.897-6.032h15.293c2.404 0 4.614 1.61 5.085 3.968.643 3.214-1.798 6.032-4.897 6.032z"/><path d="m216.828 449.644h-15.293c-2.404 0-4.614-1.611-5.085-3.968-.642-3.214 1.798-6.032 4.897-6.032h15.293c2.404 0 4.614 1.61 5.085 3.968.643 3.214-1.798 6.032-4.897 6.032z"/></g><path d="m264.285 353.432c-2.761 0-5-2.238-5-5 0-12.695-10.329-23.024-23.025-23.024-2.761 0-5-2.238-5-5s2.239-5 5-5c18.21 0 33.025 14.814 33.025 33.024 0 2.762-2.239 5-5 5z" fill="#9fb1fa"/><path d="m264.632 162.605c-2.761 0-5 2.238-5 5v9.199c-2.729 1.607-5.796 2.461-9 2.461s-6.27-.853-9-2.461v-9.011c0-2.403-1.609-4.612-3.965-5.084-3.214-.644-6.035 1.796-6.035 4.896v63.063c0 2.403 1.609 4.612 3.965 5.084 3.214.644 6.035-1.796 6.035-4.896v-17.281c2.868.975 5.894 1.479 9 1.479s6.131-.505 9-1.479v17.092c0 2.403 1.609 4.612 3.965 5.084 3.214.644 6.035-1.796 6.035-4.896v-63.251c0-2.761-2.239-4.999-5-4.999zm-5 40.143c-2.729 1.607-5.796 2.461-9 2.461s-6.27-.853-9-2.461v-15.125c2.868.975 5.894 1.479 9 1.479s6.131-.505 9-1.479z" fill="#fc80b7"/><g fill="#282eb8"><path d="m351.111 119.644h9.87c2.404 0 4.614-1.61 5.085-3.968.642-3.214-1.799-6.032-4.897-6.032h-10.247c-3.099 0-5.541 2.821-4.896 6.035.473 2.356 2.682 3.965 5.085 3.965z"/><path d="m345.198 96.946c1.016 0 2.041-.308 2.926-.948l10.247-7.41c2.237-1.618 2.74-4.744 1.122-6.981-1.619-2.238-4.744-2.74-6.982-1.122l-10.247 7.41c-2.237 1.618-2.74 4.744-1.122 6.981.978 1.352 2.506 2.07 4.056 2.07z"/><path d="m348.124 133.5c-2.237-1.617-5.363-1.116-6.981 1.122-1.618 2.237-1.116 5.363 1.122 6.981l10.247 7.409c.886.641 1.91.948 2.926.948 1.55 0 3.078-.718 4.056-2.07 1.618-2.237 1.116-5.363-1.122-6.981z"/><path d="m146.419 109.644h-9.871c-2.404 0-4.613 1.61-5.085 3.968-.643 3.214 1.799 6.032 4.897 6.032h10.247c3.098 0 5.539-2.818 4.897-6.032-.472-2.358-2.682-3.968-5.085-3.968z"/><path d="m139.157 88.587 10.247 7.41c.885.641 1.91.948 2.926.948 1.55 0 3.078-.718 4.056-2.07 1.618-2.237 1.116-5.363-1.122-6.981l-10.247-7.41c-2.235-1.617-5.362-1.116-6.981 1.122-1.619 2.237-1.117 5.363 1.121 6.981z"/><path d="m156.386 134.622c-1.618-2.239-4.745-2.739-6.981-1.122l-10.247 7.409c-2.238 1.618-2.74 4.744-1.122 6.981.978 1.353 2.506 2.07 4.056 2.07 1.016 0 2.04-.308 2.926-.948l10.247-7.409c2.236-1.617 2.739-4.743 1.121-6.981z"/></g><path d="m268.033 253.644h-35.331c-2.404 0-4.614-1.611-5.085-3.968-.642-3.214 1.799-6.032 4.897-6.032h35.331c2.404 0 4.614 1.61 5.085 3.968.642 3.214-1.799 6.032-4.897 6.032z" fill="#2bfcb4"/><path d="m268.033 270.644h-35.331c-2.404 0-4.614-1.611-5.085-3.968-.642-3.214 1.799-6.032 4.897-6.032h35.331c2.404 0 4.614 1.61 5.085 3.968.642 3.214-1.799 6.032-4.897 6.032z" fill="#2bfcb4"/><path d="m371.359 229.161c-12.273-7.104-28.174-3.675-39.727 7.299v-26.816c0-5.523-4.477-10-10-10h-137.191c-4.637 0-8.67 3.175-9.758 7.682l-20.747 85.924c-1.525 6.316 3.26 12.394 9.758 12.394h19.249l-4.493 73.325c-.355 5.787 4.243 10.675 10.04 10.675h46.142v45c0 5.523 4.477 10 10 10h76.999c5.523 0 10-4.477 10-10v-136.929c.063.037.121.078.184.114 15.633 9.049 37.159 1.013 48.078-17.949 10.921-18.961 7.1-41.669-8.534-50.719z" fill="url(#SVGID_2_)"/><path d="m401.632 388.974v69.34c0 5.153-4.177 9.33-9.33 9.33h-85.34c-5.153 0-9.33-4.177-9.33-9.33v-69.34c0-5.153 4.177-9.33 9.33-9.33h85.34c5.153 0 9.33 4.177 9.33 9.33z" fill="#9fb1fa"/><path d="m339.294 408.644h-16.519c-2.403 0-4.612-1.609-5.084-3.965-.644-3.214 1.796-6.035 4.896-6.035h16.518c2.403 0 4.612 1.609 5.085 3.965.645 3.214-1.796 6.035-4.896 6.035z" fill="#dcfced"/><path d="m401.632 388.974v69.34c0 5.153-4.177 9.33-9.33 9.33h-15.772c5.024 0 9.102-4.194 9.102-9.361v-69.278c0-5.167-4.078-9.361-9.102-9.361h15.772c5.153 0 9.33 4.177 9.33 9.33z" fill="#b7c5fc"/><path d="m401.632 407.582v50.732c0 5.153-4.177 9.33-9.33 9.33h-85.34c-5.153 0-9.33-4.177-9.33-9.33v-15.67h17.673c2.661 0 5.222-1.042 7.099-2.909l13.335-13.183c1.888-1.856 4.438-2.909 7.109-2.909h38.379c1.366 0 2.701-.278 3.936-.794 1.175-.496 2.249-1.201 3.163-2.114z" fill="#9afdd2"/><path d="m401.632 407.344v50.97c0 5.153-4.177 9.33-9.33 9.33h-15.772c5.024 0 9.102-4.18 9.102-9.33v-35.59c1.142-.5 2.185-1.21 3.073-2.13z" fill="#dcfced"/></g></svg>