<svg id="Capa_1" enable-background="new 0 0 512 512" height="512" viewBox="0 0 512 512" width="512" xmlns="http://www.w3.org/2000/svg" xmlns:xlink="http://www.w3.org/1999/xlink"><linearGradient id="SVGID_1_" gradientTransform="matrix(1 0 0 -1 -561.6 -4458.99)" gradientUnits="userSpaceOnUse" x1="1075.311" x2="685.333" y1="-4559.604" y2="-4868.587"><stop offset="0" stop-color="#c6d3fc"/><stop offset=".593" stop-color="#e6d8f3"/><stop offset=".997" stop-color="#fddaec"/></linearGradient><linearGradient id="SVGID_2_" gradientUnits="userSpaceOnUse" x1="230.5" x2="230.5" y1="162.49" y2="434.579"><stop offset=".0028" stop-color="#fc80b7" stop-opacity="0"/><stop offset="1" stop-color="#fc80b7" stop-opacity=".6"/></linearGradient><g><path d="m364.823 55.215c-69.098-27.035-164.784-16.764-217.662 31.51-37.336 34.085-8.439 43.8 17.016 106.17 18.423 45.14-164.177 38.927-164.177 120.495 0 94.299 132.251 76.424 181.329 87.218 75.036 16.504 140.496 78.242 220.668 70.103 69.795-7.086 96.403-61.855 106.109-124.642 18.082-116.976-26.329-245.094-143.283-290.854z" fill="url(#SVGID_1_)"/><path d="m452.5 129.518v200c0 11.04-8.95 20-20 20h-302c-11.05 0-20-8.96-20-20v-200c0-11.05 8.95-20 20-20h208.82l29.14-29.15c6.3-6.3 17.08-1.84 17.08 7.07v22.08h46.96c11.05 0 20 8.95 20 20z" fill="#fdc4de"/><path d="m295.813 313.906v-170c0-2.761 2.239-5 5-5h116.687c2.761 0 5 2.239 5 5v170c0 2.761-2.239 5-5 5h-116.687c-2.761 0-5-2.238-5-5z" fill="#fddaec"/><path d="m146.446 313.906v-170c0-2.761 2.239-5 5-5h116.687c2.761 0 5 2.239 5 5v170c0 2.761-2.239 5-5 5h-116.687c-2.761 0-5-2.238-5-5z" fill="#fddaec"/><path d="m401.5 182.49v200c0 11.04-8.95 20-20 20h-208.82l-29.14 29.14c-6.3 6.3-17.08 1.84-17.08-7.07v-22.07h-46.96c-11.05 0-20-8.96-20-20v-200c0-11.05 8.95-20 20-20h302c11.05 0 20 8.95 20 20z" fill="#2bfcb4"/><path d="m401.5 182.49v179.03h-271c-17.64 0-32-14.35-32-32v-167.03h283c11.05 0 20 8.95 20 20z" fill="#27eaa6"/><path d="m401.5 182.49v167.03h-271c-11.05 0-20-8.96-20-20v-167.03h271c11.05 0 20 8.95 20 20z" fill="#9fb1fa"/><path d="m178.283 266.581h155.434v82.937h-155.434z" fill="#b7c5fc"/><g fill="#d1defd"><path d="m365.142 274.619h-218.284c-2.762 0-5-2.239-5-5s2.238-5 5-5h218.284c2.762 0 5 2.239 5 5s-2.238 5-5 5z"/><path d="m365.142 295.079h-218.284c-2.762 0-5-2.239-5-5s2.238-5 5-5h218.284c2.762 0 5 2.239 5 5s-2.238 5-5 5z"/><path d="m365.142 315.539h-218.284c-2.762 0-5-2.239-5-5s2.238-5 5-5h218.284c2.762 0 5 2.239 5 5s-2.238 5-5 5z"/></g><path d="m206.947 240.066h-58.549c-3.612 0-6.54-2.928-6.54-6.54v-20.601c0-3.612 2.928-6.54 6.54-6.54h58.549c3.612 0 6.54 2.928 6.54 6.54v20.601c.001 3.612-2.928 6.54-6.54 6.54z" fill="#fddaec"/><path d="m249.407 240.066h-15.009c-3.612 0-6.54-2.928-6.54-6.54v-20.601c0-3.612 2.928-6.54 6.54-6.54h15.009c3.612 0 6.54 2.928 6.54 6.54v20.601c0 3.612-2.928 6.54-6.54 6.54z" fill="#9afdd2"/><g fill="#839afa"><circle cx="156.738" cy="223.226" r="5.59"/><circle cx="173.648" cy="223.226" r="5.59"/><circle cx="190.558" cy="223.226" r="5.59"/><path d="m74.477 132.393c-3.901 0-7.568-1.519-10.326-4.278-5.693-5.693-5.693-14.957 0-20.651 2.758-2.758 6.425-4.277 10.326-4.277 3.9 0 7.568 1.519 10.326 4.278 5.693 5.693 5.693 14.957 0 20.651-2.758 2.758-6.426 4.277-10.326 4.277zm0-19.206c-1.229 0-2.385.479-3.255 1.348-1.794 1.795-1.794 4.715 0 6.509.87.87 2.025 1.349 3.255 1.349 1.229 0 2.385-.479 3.254-1.348 1.794-1.794 1.794-4.714 0-6.509-.869-.87-2.025-1.349-3.254-1.349z"/><path d="m442.897 403.727c-3.9 0-7.568-1.519-10.326-4.278-5.693-5.693-5.693-14.957 0-20.651 2.758-2.758 6.425-4.277 10.326-4.277s7.568 1.519 10.326 4.278c5.693 5.693 5.693 14.957 0 20.651-2.758 2.758-6.425 4.277-10.326 4.277zm0-19.206c-1.229 0-2.385.479-3.254 1.348-1.794 1.795-1.794 4.715 0 6.509.87.87 2.025 1.349 3.254 1.349s2.385-.479 3.255-1.348c1.794-1.794 1.794-4.714 0-6.509-.87-.87-2.026-1.349-3.255-1.349z"/></g><path d="m102.333 78.081h-3.25v-3.25c0-2.761-2.239-5-5-5s-5 2.239-5 5v3.25h-3.25c-2.761 0-5 2.239-5 5s2.239 5 5 5h3.25v3.25c0 2.761 2.239 5 5 5s5-2.239 5-5v-3.25h3.25c2.761 0 5-2.239 5-5s-2.238-5-5-5z" fill="#fc80b7"/><path d="m482.583 356.52h-3.25v-3.25c0-2.761-2.239-5-5-5s-5 2.239-5 5v3.25h-3.25c-2.761 0-5 2.239-5 5s2.239 5 5 5h3.25v3.25c0 2.761 2.239 5 5 5s5-2.239 5-5v-3.25h3.25c2.761 0 5-2.239 5-5s-2.238-5-5-5z" fill="#fc80b7"/><path d="m183.25 437.83h-3.25v-3.25c0-2.761-2.239-5-5-5s-5 2.239-5 5v3.25h-3.25c-2.761 0-5 2.239-5 5s2.239 5 5 5h3.25v3.25c0 2.761 2.239 5 5 5s5-2.239 5-5v-3.25h3.25c2.761 0 5-2.239 5-5s-2.239-5-5-5z" fill="#27eaa6"/><path d="m356.375 223.226c4.255-3.712 6.96-9.158 6.96-15.234 0-11.157-9.077-20.234-20.234-20.234s-20.234 9.077-20.234 20.234c0 6.077 2.705 11.522 6.96 15.234-4.255 3.712-6.96 9.158-6.96 15.234 0 2.761 2.239 5 5 5s5-2.239 5-5c0-5.643 4.591-10.234 10.234-10.234s10.234 4.591 10.234 10.234c0 2.761 2.239 5 5 5s5-2.239 5-5c0-6.077-2.705-11.522-6.96-15.234zm-23.509-15.235c0-5.643 4.591-10.234 10.234-10.234s10.234 4.591 10.234 10.234-4.591 10.234-10.234 10.234-10.234-4.591-10.234-10.234z" fill="#d1defd"/><path d="m401.5 182.49v200c0 11.04-8.95 20-20 20h-208.82l-29.14 29.14c-6.3 6.3-17.08 1.84-17.08-7.07v-22.07h-46.96c-11.05 0-20-8.96-20-20v-200c0-11.05 8.95-20 20-20h302c11.05 0 20 8.95 20 20z" fill="url(#SVGID_2_)"/></g></svg>