<svg id="Capa_1" enable-background="new 0 0 512 512" height="512" viewBox="0 0 512 512" width="512" xmlns="http://www.w3.org/2000/svg" xmlns:xlink="http://www.w3.org/1999/xlink"><linearGradient id="SVGID_1_" gradientTransform="matrix(.987 .163 .163 -.987 -614.384 1274.27)" gradientUnits="userSpaceOnUse" x1="904.881" x2="579.909" y1="1075.622" y2="1207.257"><stop offset=".0112" stop-color="#dcfced"/><stop offset=".7774" stop-color="#ccddf9"/><stop offset="1" stop-color="#c6d3fc"/></linearGradient><linearGradient id="SVGID_2_" gradientUnits="userSpaceOnUse" x1="211.312" x2="211.312" y1="33.79" y2="478.21"><stop offset=".0028" stop-color="#fc80b7" stop-opacity="0"/><stop offset="1" stop-color="#fc80b7" stop-opacity=".6"/></linearGradient><g><path d="m338.367.425c-95.818 8.652-105.091 192.429-146.416 286.587-20.478 46.658-68.772 94.794-60.258 149.782 9.605 62.035 72.897 80.075 121.683 74.14 120.723-14.685 172.899-141.053 180.797-260.801 4.869-73.829 20.301-260.192-95.806-249.708z" fill="url(#SVGID_1_)"/><path d="m335.132 54.79v402.42c0 11.6-9.4 21-21 21h-205.64c-11.6 0-21-9.4-21-21v-402.42c0-11.6 9.4-21 21-21h205.64c11.6 0 21 9.4 21 21z" fill="#9afdd2"/><path d="m213.511 226.16h121.62v21.51h-121.62z" fill="#2bfcb4"/><path d="m335.13 88v-33.213c0-11.598-9.402-21-21-21h-205.637c-11.598 0-21 9.402-21 21v33.213z" fill="#6785f9"/><path d="m335.131 54.787v33.21h-21.88v-33.21c0-11.6-9.4-21-21-21h21.88c11.6 0 21 9.4 21 21z" fill="#839afa"/><g fill="#fff"><circle cx="122.145" cy="61.983" r="5.59"/><path d="m142.055 56.393c3.087 0 5.59 2.503 5.59 5.59s-2.503 5.59-5.59 5.59-5.59-2.503-5.59-5.59 2.502-5.59 5.59-5.59z"/><circle cx="161.965" cy="61.983" r="5.59"/></g><path d="m143.148 355.509h-10.52c-2.762 0-5-2.239-5-5s2.238-5 5-5h10.52c2.762 0 5 2.239 5 5s-2.238 5-5 5z" fill="#6785f9"/><path d="m273.23 420h-153.879c-2.761 0-5-2.239-5-5v-45.382c0-2.761 2.239-5 5-5h153.879c2.761 0 5 2.239 5 5v45.382c0 2.761-2.239 5-5 5z" fill="#27eaa6"/><path d="m447.188 218.591h-88.85l45.079-44.484c1.871-1.847 4.395-2.882 7.024-2.882h60.376c8.941 0 13.388 10.838 7.024 17.118z" fill="#9afdd2"/><path d="m392.388 219.574c-1.291 0-2.581-.497-3.559-1.488-1.94-1.965-1.919-5.131.047-7.071l23.497-23.187c1.965-1.938 5.132-1.919 7.07.047 1.94 1.965 1.919 5.131-.047 7.071l-23.497 23.187c-.973.961-2.243 1.441-3.511 1.441z" fill="#fc80b7"/><path d="m419.587 219.574c-1.291 0-2.581-.497-3.559-1.488-1.94-1.965-1.919-5.131.047-7.071l23.497-23.187c1.964-1.938 5.132-1.919 7.07.047 1.94 1.965 1.919 5.131-.047 7.071l-23.497 23.187c-.973.961-2.242 1.441-3.511 1.441z" fill="#fc80b7"/><path d="m470.814 281.46h-60.37c-2.63 0-5.16-1.03-7.03-2.88l-31.33-30.91-13.75-13.57h88.85l13.75 13.57 16.91 16.68c6.36 6.28 1.91 17.11-7.03 17.11z" fill="#9afdd2"/><path d="m460.934 247.67h-88.85l-13.75-13.57h88.85z" fill="#2bfcb4"/><path d="m415.885 266.302c-1.269 0-2.538-.479-3.512-1.441l-23.497-23.187c-1.966-1.939-1.987-5.105-.047-7.071 1.939-1.967 5.107-1.987 7.07-.047l23.497 23.187c1.966 1.939 1.987 5.105.047 7.071-.977.992-2.268 1.488-3.558 1.488z" fill="#fc80b7"/><path d="m443.084 266.302c-1.269 0-2.538-.479-3.512-1.441l-23.497-23.187c-1.966-1.939-1.987-5.105-.047-7.071 1.939-1.967 5.106-1.987 7.07-.047l23.497 23.187c1.966 1.939 1.987 5.105.047 7.071-.977.992-2.268 1.488-3.558 1.488z" fill="#fc80b7"/><ellipse cx="213.51" cy="226.345" fill="#fca8ce" rx="97.091" ry="101.101"/><path d="m310.582 227.941c-.1 7.39-.97 14.59-2.54 21.51h-94.53v-21.51z" fill="#fc80b7"/><ellipse cx="213.51" cy="226.345" fill="#fddaec" rx="58.835" ry="65.101"/><path d="m272.322 227.941c-.16 7.56-1.5 14.8-3.82 21.51h-54.99v-21.51z" fill="#fdc4de"/><path d="m213.51 255.446c-9.714 0-20.579-12.445-20.579-29.101s10.865-29.101 20.579-29.101 20.578 12.445 20.578 29.101-10.864 29.101-20.578 29.101z" fill="#fc80b7"/><path d="m234.062 227.941c-.38 8.96-3.89 16.58-8.59 21.51h-11.96v-21.51z" fill="#fc5fa7"/><path d="m233.148 389.914h-100.52c-2.762 0-5-2.239-5-5s2.238-5 5-5h100.52c2.762 0 5 2.239 5 5s-2.238 5-5 5z" fill="#dcfced"/><path d="m233.148 407.704h-100.52c-2.762 0-5-2.239-5-5s2.238-5 5-5h100.52c2.762 0 5 2.239 5 5s-2.238 5-5 5z" fill="#dcfced"/><path d="m211.311 449.337c-1.328 0-2.601-.528-3.539-1.468l-5.83-5.84c-1.951-1.954-1.948-5.12.006-7.071 1.954-1.95 5.121-1.948 7.071.006l2.291 2.295 2.292-2.295c1.951-1.954 5.117-1.957 7.071-.006s1.957 5.117.006 7.071l-5.83 5.84c-.937.94-2.21 1.468-3.538 1.468z" fill="#1bb376"/><path d="m271.839 388.147h-5.016c-6.286 0-11.4-5.114-11.4-11.4v-15.483c0-6.286 5.114-11.4 11.4-11.4h5.016c6.286 0 11.4 5.114 11.4 11.4v15.483c.001 6.286-5.113 11.4-11.4 11.4zm-5.015-28.283c-.772 0-1.4.628-1.4 1.4v15.483c0 .772.628 1.4 1.4 1.4h5.016c.772 0 1.4-.628 1.4-1.4v-15.483c0-.772-.628-1.4-1.4-1.4z" fill="#315ddb"/><path d="m298.951 388.147c-2.762 0-5-2.239-5-5v-23.283h-.122c-2.762 0-5-2.239-5-5s2.238-5 5-5h5.122c2.762 0 5 2.239 5 5v28.283c0 2.761-2.239 5-5 5z" fill="#315ddb"/><path d="m213.51 192.243c-2.761 0-5 2.239-5 5v58.202c0 2.761 2.239 5 5 5s5-2.239 5-5v-58.202c0-2.761-2.239-5-5-5z" fill="#fa338e"/><path d="m213.51 178.413c-2.761 0-5-2.239-5-5v-55.22c0-2.761 2.239-5 5-5s5 2.239 5 5v55.22c0 2.761-2.239 5-5 5z" fill="#fdc4de"/><path d="m213.51 339.496c-2.761 0-5-2.239-5-5v-55.22c0-2.761 2.239-5 5-5s5 2.239 5 5v55.22c0 2.761-2.239 5-5 5z" fill="#fdc4de"/><path d="m281.753 193.952c-2.762 0-5-2.239-5-5v-3.5c0-2.761 2.238-5 5-5s5 2.239 5 5v3.5c0 2.761-2.238 5-5 5z" fill="#839afa"/><path d="m259.901 166.867c-2.761 0-5-2.239-5-5v-3.5c0-2.761 2.239-5 5-5 2.762 0 5 2.239 5 5v3.5c0 2.761-2.238 5-5 5z" fill="#fc5fa7"/><path d="m281.753 271.869c-2.762 0-5-2.239-5-5v-3.5c0-2.761 2.238-5 5-5s5 2.239 5 5v3.5c0 2.761-2.238 5-5 5z" fill="#839afa"/><path d="m259.901 298.953c-2.761 0-5-2.239-5-5v-3.5c0-2.761 2.239-5 5-5 2.762 0 5 2.239 5 5v3.5c0 2.761-2.238 5-5 5z" fill="#fc5fa7"/><path d="m145.27 193.952c-2.761 0-5-2.239-5-5v-3.5c0-2.761 2.239-5 5-5s5 2.239 5 5v3.5c0 2.761-2.239 5-5 5z" fill="#839afa"/><path d="m167.122 166.867c-2.761 0-5-2.239-5-5v-3.5c0-2.761 2.239-5 5-5s5 2.239 5 5v3.5c0 2.761-2.239 5-5 5z" fill="#fc5fa7"/><path d="m145.27 271.869c-2.761 0-5-2.239-5-5v-3.5c0-2.761 2.239-5 5-5s5 2.239 5 5v3.5c0 2.761-2.239 5-5 5z" fill="#839afa"/><path d="m167.122 298.953c-2.761 0-5-2.239-5-5v-3.5c0-2.761 2.239-5 5-5s5 2.239 5 5v3.5c0 2.761-2.239 5-5 5z" fill="#fc5fa7"/><path d="m335.132 54.79v402.42c0 11.6-9.4 21-21 21h-205.64c-11.6 0-21-9.4-21-21v-402.42c0-11.6 9.4-21 21-21h205.64c11.6 0 21 9.4 21 21z" fill="url(#SVGID_2_)"/><path d="m450.639 237.098h-237.129v-21.506h237.129c5.939 0 10.753 4.814 10.753 10.753s-4.814 10.753-10.753 10.753z" fill="#6785f9"/><path d="m446.597 368.318h-3.25v-3.25c0-2.761-2.238-5-5-5s-5 2.239-5 5v3.25h-3.25c-2.762 0-5 2.239-5 5s2.238 5 5 5h3.25v3.25c0 2.761 2.238 5 5 5s5-2.239 5-5v-3.25h3.25c2.762 0 5-2.239 5-5s-2.238-5-5-5z" fill="#27eaa6"/><path d="m370.915 34.463h-3.25v-3.25c0-2.761-2.238-5-5-5s-5 2.239-5 5v3.25h-3.25c-2.762 0-5 2.239-5 5s2.238 5 5 5h3.25v3.25c0 2.761 2.238 5 5 5s5-2.239 5-5v-3.25h3.25c2.762 0 5-2.239 5-5s-2.239-5-5-5z" fill="#fc80b7"/><path d="m52.664 417.873h-3.25v-3.25c0-2.761-2.239-5-5-5s-5 2.239-5 5v3.25h-3.25c-2.761 0-5 2.239-5 5s2.239 5 5 5h3.25v3.25c0 2.761 2.239 5 5 5s5-2.239 5-5v-3.25h3.25c2.761 0 5-2.239 5-5s-2.239-5-5-5z" fill="#fc80b7"/><g fill="#839afa"><path d="m393.682 353.467c-1.458 0-2.923-.221-4.354-.666-3.724-1.158-6.774-3.697-8.59-7.15-1.814-3.453-2.176-7.406-1.018-11.13 2.392-7.688 10.586-11.998 18.281-9.607 3.724 1.158 6.774 3.697 8.589 7.15 1.814 3.453 2.176 7.406 1.018 11.13s-3.697 6.775-7.15 8.59c-2.125 1.116-4.441 1.683-6.776 1.683zm-.014-19.213c-1.963 0-3.785 1.266-4.398 3.237-.365 1.173-.251 2.419.32 3.507.572 1.088 1.534 1.889 2.708 2.254 1.173.364 2.419.252 3.508-.321 1.089-.572 1.889-1.533 2.254-2.707s.251-2.42-.32-3.508c-.572-1.088-1.534-1.888-2.707-2.253-.455-.142-.914-.209-1.365-.209z"/><path d="m52.655 396.597c-1.433 0-2.889-.213-4.327-.66-3.725-1.158-6.775-3.697-8.59-7.15-1.814-3.453-2.176-7.406-1.018-11.13s3.697-6.775 7.15-8.589c3.454-1.814 7.406-2.177 11.13-1.018 3.725 1.158 6.776 3.697 8.59 7.15 1.815 3.453 2.176 7.405 1.018 11.13-1.943 6.25-7.727 10.267-13.953 10.267zm.012-19.207c-1.963 0-3.785 1.266-4.398 3.236-.365 1.174-.251 2.42.321 3.508s1.534 1.889 2.708 2.254c2.42.75 5.007-.605 5.762-3.029.365-1.174.251-2.419-.321-3.508-.572-1.088-1.534-1.889-2.708-2.254-.453-.14-.912-.207-1.364-.207zm9.167 7.454h.01z"/></g></g></svg>