<svg id="Capa_1" enable-background="new 0 0 512.001 512.001" height="512" viewBox="0 0 512.001 512.001" width="512" xmlns="http://www.w3.org/2000/svg" xmlns:xlink="http://www.w3.org/1999/xlink"><linearGradient id="SVGID_1_" gradientTransform="matrix(1 0 0 -1 -561.6 -5522.989)" gradientUnits="userSpaceOnUse" x1="875.688" x2="824.267" y1="-5495.944" y2="-5753.046"><stop offset="0" stop-color="#c6d3fc"/><stop offset=".593" stop-color="#e6d8f3"/><stop offset=".997" stop-color="#fddaec"/></linearGradient><linearGradient id="SVGID_2_" gradientUnits="userSpaceOnUse" x1="256" x2="256" y1="43.917" y2="405.623"><stop offset=".0028" stop-color="#fc80b7" stop-opacity="0"/><stop offset="1" stop-color="#fc80b7" stop-opacity=".6"/></linearGradient><g><path d="m38.146 134.71c19.974-57.707 57.562-157.818 137.712-129.893 31.204 10.872 41.003 52.164 72.37 57.311 29.626 4.861 54.704-24.255 82.89-29.776 35.014-6.859 72.067 2.317 85.37 36.48 15.916 40.874-30.997 86.737-19.655 124.062 18.708 61.564 87.863-40.471 100.229 58.88 17.304 139.025-136.801 386.519-240.619 182.998-52.643-103.199-107.815-30.825-189.876-82.161-77.922-48.747-53.805-144.567-28.421-217.901z" fill="url(#SVGID_1_)"/><path d="m208.983 478.623h-16c-5.523 0-10-4.477-10-10v-31h36v31c0 5.523-4.477 10-10 10z" fill="#9fb1fa"/><path d="m182.983 437.623h36v28h-36z" fill="#839afa"/><path d="m318.983 478.623h-16c-5.523 0-10-4.477-10-10v-31h36v31c0 5.523-4.477 10-10 10z" fill="#9fb1fa"/><path d="m292.983 437.623h36v28h-36z" fill="#839afa"/><path d="m345.775 454.623h-179.549c-7.538 0-12.363-8.008-8.859-14.675l11.852-22.494 10.451-19.831h152.661l10.451 19.831 11.852 22.494c3.504 6.667-1.321 14.675-8.859 14.675z" fill="#d1defd"/><path d="m343.522 417.623h-175.043l10.54-20h153.963z" fill="#b7c5fc"/><path d="m451.403 378.623h-102.42v-112.35c30.01 0 57.28 11.7 77.5 30.79 19.2 18.11 32.07 42.89 34.88 70.63.6 5.86-4.07 10.93-9.96 10.93z" fill="#9fb1fa"/><path d="m426.483 296.623h-71.09c-2.44 0-4.67-.87-6.41-2.32v-28.47c30.01 0 57.28 11.7 77.5 30.79z" fill="#839afa"/><path d="m50.599 367.685c5.792-56.964 53.891-101.416 112.384-101.416v112.354h-102.422c-5.893-.001-10.558-5.076-9.962-10.938z" fill="#9fb1fa"/><path d="m240.592 51.156c-36.202 43.573-108.481 152.678-113.634 333.881-.32 11.268 8.725 20.586 19.997 20.586h218.09c11.273 0 20.318-9.317 19.997-20.586-5.153-181.203-77.431-290.308-113.634-333.881-8.019-9.652-22.796-9.652-30.816 0z" fill="#fc80b7"/><path d="m291.461 77.53c-9.51 8.21-21.9 13.18-35.46 13.18s-25.95-4.97-35.46-13.18c7.34-10.57 14.17-19.37 20.05-26.45 8.02-9.65 22.8-9.65 30.82 0 5.879 7.08 12.71 15.88 20.05 26.45z" fill="#2bfcb4"/><path d="m376.893 296.623h-20.91c-5.523 0-10-4.477-10-10v-77.94c0-4.32 2.74-8 6.57-9.39 9.9 28.68 18.44 61.09 24.34 97.33z" fill="#fc5fa7"/><path d="m222.983 74.053v52.24c0 5.153-4.177 9.33-9.33 9.33h-27.48c12.52-25.02 25.37-45.5 36.81-61.57z" fill="#fc5fa7"/><path d="m284.983 405.623h-57v-96c0-2.761 2.239-5 5-5h47c2.762 0 5 2.239 5 5z" fill="#fca8ce"/><g fill="#fddaec"><path d="m278.983 383.48v-65.007c0-2.403 1.609-4.612 3.965-5.084 3.214-.644 6.035 1.796 6.035 4.896v65.006c0 2.403-1.609 4.612-3.965 5.085-3.213.645-6.035-1.797-6.035-4.896z"/><circle cx="212.321" cy="344.276" r="5.59"/><circle cx="212.321" cy="327.366" r="5.59"/><circle cx="212.321" cy="310.456" r="5.59"/></g><circle cx="256.001" cy="180.453" fill="#fdc4de" r="45.147"/><path d="m301.151 180.453c0 24.93-20.22 45.15-45.15 45.15-16.5 0-30.94-8.86-38.81-22.08 6.42 3.52 13.8 5.52 21.64 5.52 24.93 0 45.14-20.21 45.14-45.14 0-8.44-2.31-16.33-6.33-23.09 14.01 7.67 23.51 22.55 23.51 39.64z" fill="#fddaec"/><path d="m134.067 173.369c-3.739 0-7.479-1.423-10.325-4.27-2.759-2.758-4.278-6.425-4.278-10.326s1.52-7.568 4.278-10.326 6.425-4.277 10.325-4.277 7.567 1.519 10.326 4.278c5.693 5.693 5.693 14.957-.001 20.651-2.846 2.847-6.585 4.27-10.325 4.27zm0-19.199c-1.229 0-2.385.479-3.254 1.348-.87.87-1.35 2.026-1.35 3.255s.479 2.385 1.349 3.254c1.796 1.795 4.716 1.796 6.51 0 1.794-1.794 1.794-4.714 0-6.509-.87-.869-2.025-1.348-3.255-1.348z" fill="#839afa"/><path d="m345.844 76.901c-4.031 0-7.814-1.623-10.602-4.561-5.202-5.482-5.29-14.286-.199-19.87 5.64-6.186 15.271-6.352 21.125-.498 5.694 5.694 5.694 14.958 0 20.651h.001c-.001 0-.001 0-.001 0-2.757 2.759-6.425 4.278-10.324 4.278zm0-19.134c-2.03 0-4.057 1.331-4.657 3.989-.087.386-.091.793-.009 1.181.536 2.526 2.483 4.035 4.666 4.035 1.23 0 2.385-.479 3.254-1.348h.413c.552 0 1.013-.421 1.081-.968.577-4.604-2.088-6.889-4.748-6.889z" fill="#fc80b7"/><path d="m429.045 153.623h-3.062v-3.062c0-2.404-1.61-4.614-3.968-5.085-3.214-.643-6.032 1.798-6.032 4.897v3.25h-3.062c-2.403 0-4.612 1.609-5.084 3.965-.644 3.214 1.796 6.035 4.896 6.035h3.25v3.062c0 2.404 1.611 4.613 3.968 5.085 3.214.642 6.032-1.799 6.032-4.897v-3.25h3.25c3.1 0 5.54-2.821 4.896-6.035-.472-2.356-2.681-3.965-5.084-3.965z" fill="#27eaa6"/><path d="m114.045 184.623h-3.062v-3.062c0-2.404-1.61-4.613-3.968-5.085-3.214-.642-6.032 1.799-6.032 4.897v3.25h-3.062c-2.403 0-4.612 1.609-5.084 3.965-.644 3.214 1.796 6.035 4.896 6.035h3.25v3.062c0 2.404 1.611 4.614 3.968 5.085 3.214.642 6.032-1.799 6.032-4.897v-3.25h3.25c3.1 0 5.541-2.821 4.896-6.035-.472-2.356-2.681-3.965-5.084-3.965z" fill="#fc80b7"/><path d="m135.045 425.623h-3.062v-3.062c0-2.404-1.61-4.613-3.968-5.085-3.214-.642-6.032 1.798-6.032 4.897v3.25h-3.062c-2.403 0-4.612 1.609-5.084 3.965-.644 3.214 1.796 6.035 4.896 6.035h3.25v3.062c0 2.404 1.611 4.613 3.968 5.085 3.214.642 6.032-1.798 6.032-4.897v-3.25h3.25c3.1 0 5.54-2.821 4.896-6.035-.472-2.356-2.681-3.965-5.084-3.965z" fill="#27eaa6"/><path d="m432.911 354.623h-28.666c-2.403 0-4.612-1.609-5.084-3.965-.644-3.214 1.796-6.035 4.896-6.035h28.666c2.403 0 4.612 1.609 5.084 3.965.645 3.214-1.795 6.035-4.896 6.035z" fill="#d1defd"/><path d="m107.944 354.623h-28.666c-2.403 0-4.612-1.609-5.084-3.965-.644-3.214 1.796-6.035 4.896-6.035h28.666c2.403 0 4.612 1.609 5.084 3.965.644 3.214-1.796 6.035-4.896 6.035z" fill="#d1defd"/><path d="m248.181 284.623h-5.395c-6.519 0-11.803-5.284-11.803-11.803v-16.394c0-6.519 5.284-11.803 11.803-11.803h5.395c6.518 0 11.802 5.284 11.802 11.802v16.396c0 6.518-5.284 11.802-11.802 11.802zm-7.198-28.197v16.395c0 .995.807 1.802 1.802 1.802h5.396c.991 0 1.802-.811 1.802-1.802v-16.395c0-.992-.811-1.803-1.803-1.803h-5.394c-.995 0-1.803.807-1.803 1.803z" fill="#fddaec"/><path d="m270.983 281.267v-26.643h-2.027c-.565 0-1.107-.239-1.495-.65-4.044-4.287-1.076-9.35 3.077-9.35h8.51c1.068 0 1.934.866 1.934 1.934v33.128c0 4.152-5.063 7.123-9.35 3.076-.41-.389-.649-.931-.649-1.495z" fill="#fddaec"/><path d="m256.001 130.306c-27.65 0-50.146 22.496-50.146 50.147s22.496 50.146 50.146 50.146 50.146-22.496 50.146-50.146c0-27.651-22.496-50.147-50.146-50.147zm0 90.294c-22.137 0-40.146-18.01-40.146-40.146 0-22.137 18.01-40.147 40.146-40.147s40.146 18.01 40.146 40.147c0 22.136-18.009 40.146-40.146 40.146z" fill="#fa338e"/><path d="m228.081 185.453c-2.762 0-5-2.239-5-5 0-9.594 3.736-18.615 10.52-25.399 1.953-1.953 5.118-1.953 7.071 0s1.953 5.118.001 7.071c-4.896 4.896-7.592 11.405-7.592 18.329 0 2.76-2.238 4.999-5 4.999z" fill="#fddaec"/><path d="m240.592 51.156c-36.202 43.573-108.481 152.678-113.634 333.881-.32 11.268 8.725 20.586 19.997 20.586h218.09c11.273 0 20.318-9.317 19.997-20.586-5.153-181.203-77.431-290.308-113.634-333.881-8.019-9.652-22.796-9.652-30.816 0z" fill="url(#SVGID_2_)"/><path d="m433.983 282.623h-78c-5.523 0-10-4.477-10-10v-78c0-5.523 4.477-10 10-10h78c5.523 0 10 4.477 10 10v78c0 5.523-4.477 10-10 10z" fill="#2bfcb4"/><path d="m443.983 194.629v77.988c0 5.523-4.553 10.006-10.186 10.006h-17c5.633 0 10.186-4.483 10.186-10.006v-77.988c0-5.533-4.553-10.006-10.186-10.006h17.186c5.523 0 10 4.477 10 10z" fill="#9afdd2"/><g fill="#fff"><path d="m377.651 229.378c-7.174 0-13.011-5.836-13.011-13.011s5.837-13.011 13.011-13.011 13.011 5.836 13.011 13.011c-.001 7.175-5.837 13.011-13.011 13.011zm0-16.021c-1.66 0-3.011 1.351-3.011 3.011s1.351 3.011 3.011 3.011 3.011-1.351 3.011-3.011-1.35-3.011-3.011-3.011z"/><path d="m411.98 263.708c-7.174 0-13.011-5.836-13.011-13.011s5.837-13.011 13.011-13.011 13.011 5.836 13.011 13.011-5.837 13.011-13.011 13.011zm0-16.021c-1.66 0-3.011 1.351-3.011 3.011s1.351 3.011 3.011 3.011 3.011-1.351 3.011-3.011-1.35-3.011-3.011-3.011z"/><path d="m380.622 252.726c-1.279 0-2.56-.488-3.535-1.464-1.953-1.953-1.953-5.119 0-7.071l28.386-28.386c1.951-1.952 5.119-1.952 7.07 0 1.953 1.953 1.953 5.119 0 7.071l-28.386 28.386c-.975.975-2.255 1.464-3.535 1.464z"/></g><path d="m222.983 42.953v69.34c0 5.153-4.177 9.33-9.33 9.33h-85.34c-5.153 0-9.33-4.177-9.33-9.33v-69.34c0-5.153 4.177-9.33 9.33-9.33h85.34c5.153 0 9.33 4.177 9.33 9.33z" fill="#9fb1fa"/><path d="m160.876 62.623h-16.519c-2.403 0-4.612-1.609-5.084-3.965-.644-3.214 1.796-6.035 4.896-6.035h16.519c2.403 0 4.612 1.609 5.084 3.965.644 3.214-1.796 6.035-4.896 6.035z" fill="#dcfced"/><path d="m222.983 42.953v69.34c0 5.153-4.177 9.33-9.33 9.33h-15.772c5.024 0 9.102-4.194 9.102-9.361v-69.278c0-5.167-4.078-9.361-9.102-9.361h15.772c5.153 0 9.33 4.177 9.33 9.33z" fill="#b7c5fc"/><path d="m222.983 61.562v50.732c0 5.153-4.177 9.33-9.33 9.33h-85.34c-5.153 0-9.33-4.177-9.33-9.33v-15.67h17.673c2.661 0 5.222-1.042 7.099-2.909l13.335-13.183c1.888-1.856 4.438-2.909 7.109-2.909h38.379c1.366 0 2.701-.278 3.936-.794 1.175-.496 2.249-1.201 3.163-2.114z" fill="#9afdd2"/><path d="m222.983 61.323v50.97c0 5.153-4.177 9.33-9.33 9.33h-15.772c5.024 0 9.102-4.18 9.102-9.33v-35.59c1.142-.5 2.185-1.21 3.073-2.13z" fill="#dcfced"/></g></svg>